<?xml version="1.0" encoding="UTF-8"?>
<svg id="Camada_1" data-name="Camada 1" xmlns="http://www.w3.org/2000/svg" viewBox="0 0 1417.32 1417.32">
  <defs>
    <style>
      .cls-1 {
        fill: #b33c8e;
      }
    </style>
  </defs>
  <path class="cls-1" d="M775.43,217.79c-48.13,21.69-65.71,39.27-87.4,87.4-21.69-48.13-39.27-65.71-87.4-87.4,48.13-21.69,65.71-39.27,87.4-87.4,21.69,48.13,39.27,65.71,87.4,87.4Z"/>
  <path class="cls-1" d="M441.52,547.85c-10.42-28.24-16.13-58.74-16.13-90.55,0-43.44,10.65-84.43,29.43-120.55,21.66,8.87,42.31,18.73,61.48,29.07-14.62,27.28-22.94,58.42-22.94,91.48,0,81.24,50.13,150.98,121.07,179.96-10.74,19.29-24.08,38.54-40.63,56.27-27.09-13.11-51.59-30.75-72.53-51.92l-6.37-6.67h0c-21.45-23.25-38.76-50.37-50.74-80.19-.48-1.13-.96-2.3-1.43-3.53-.44-1.15-.85-2.28-1.23-3.38Z"/>
  <path class="cls-1" d="M799.16,694.67c-16.73-17.71-30.22-36.98-41.09-56.32,72.43-28.26,123.9-98.75,123.9-181.06,0-33.64-8.62-65.28-23.73-92.9,19.26-10.27,39.96-20.05,61.66-28.81,19.16,36.4,30.04,77.8,30.04,121.71,0,104.78-61.76,195.4-150.79,237.38Z"/>
  <path class="cls-1" d="M1234.37,237.93c-20.03-5.38-46.62-10.06-72.96-12.85-68.91-7.3-139.46-1.72-209.67,16.6-43.26,11.29-96.82,25.27-154.92,64.42-.3.27-.6.53-.89.81-.05-.04-.1-.07-.15-.1-1.24.84-2.49,1.68-3.73,2.55-38.02,26.42-71.32,59.05-99.06,97.02-.9.81-4.61,6.22-5.04,7.3-19.45-27.69-52.83-68.38-104.67-104.32-60.37-41.85-115.34-56.1-159.69-67.67-70.21-18.32-140.75-23.9-209.67-16.6-26.34,2.79-52.93,7.48-72.96,12.85-28.45,7.64-32.04,13.51-32.43,14.45,1.13,1.26,6.27,3.71,12.18,6.52,6.6,3.14,15.64,7.44,27.98,14.04,23.82,12.73,39.56,21.14,54.15,34.84,12.68,11.91,18.86,22.23,31.17,42.8,10.62,17.74,15.77,29.61,21.23,42.17,4.12,9.49,8.38,19.31,15.36,32.51,11.2,21.17,19.28,36.46,32.88,52.27,39.76,46.24,96.03,62.29,118.38,67.04,3.34.71,6.56,1.31,9.66,1.83-7.88-22.58-12.85-46.5-14.46-71.33-6.7-2.44-12.63-5.35-18.61-8.94-23.22-13.94-37.55-32.95-63.55-67.45l-2.34-3.11c-14.46-19.17-28.08-39.21-45.38-65.32-8.13-12.27-16.2-24.75-23.99-37.1-.89-1.4-.92-3.18-.09-4.61.83-1.43,2.39-2.3,4.04-2.23,37.46,1.45,74.72,6.72,110.72,15.67,134.01,33.32,248.93,115.93,272.33,160.48,1.56,2.97,2.69,5.77,3.43,8.41,3.23,9.02,3.69,18.99,4.71,36.02,1.75,29.15-2.7,50.75-3.82,55.91-3.9,18-9.42,30.93-14.42,42.64-5.94,13.9-9.44,22.09-12.51,26.18-18.95,36.93-46.84,74.68-87.81,103.37-24.22,16.96-54.64,32.22-81.38,40.82-12.25,3.94-26.57,7.38-39.26,7.38-10.84,0-20.48-2.51-26.6-9.36-13.05-14.59-3.24-41.28.46-51.33,9.29-25.27,26.38-44.83,93.93-83.07-14.17-15.6-26.53-32.85-36.8-51.42-23.95,12.24-55.71,30.36-84.39,62.12-27.08,29.99-37.54,59.29-58.39,117.67-4.86,13.6-9.1,28.07-3.12,42.38,7.14,17.09,26.63,29.84,44.33,29.18,12.7-.52,23.67-8.1,31.68-13.63,7.57-5.22,13.54-9.35,18.53-5.06,3.61,3.1,2.5,7.59,1.61,11.2-.83,3.36-1.68,6.84-.34,10.48,3.25,8.76,17.62,15.73,28.47,13.79,12.04-2.13,19.82-15.11,26.68-26.57,6.72-11.22,13.07-21.81,23.28-20.59,5.85.71,8.45,4.92,10.35,7.99,1.5,2.42,2.43,3.82,4.11,4.34,6.54,2.05,17.59-12.5,31.57-30.9,14.34-18.87,33.97-44.72,61.37-69.67,17.88-16.28,40.41-33.87,71.95-40.88,9.7-2.16,19.73-3.2,29.81-3.15h0s.02,0,.03,0c.01,0,.02,0,.03,0h0c10.07-.04,20.11.99,29.81,3.15,31.54,7.01,54.07,24.6,71.95,40.88,27.4,24.95,47.03,50.8,61.37,69.67,13.98,18.4,24.98,32.96,31.57,30.9,1.68-.52,2.62-1.92,4.11-4.34,1.9-3.07,4.51-7.28,10.35-7.99,10.17-1.22,16.56,9.36,23.28,20.59,6.86,11.45,14.63,24.43,26.67,26.57,10.85,1.92,25.23-5.03,28.47-13.79,1.35-3.63.49-7.11-.34-10.47-.89-3.61-1.99-8.1,1.61-11.2,4.99-4.28,10.96-.16,18.53,5.06,8.01,5.53,18.99,13.1,31.68,13.63,17.74.67,37.2-12.09,44.33-29.18,5.97-14.31,1.73-28.78-3.12-42.37-20.84-58.38-31.31-87.68-58.38-117.67-28.67-31.75-60.43-49.87-84.38-62.11-10.55,19.09-23.33,36.77-37.99,52.7,65.67,37.39,82.48,56.8,91.66,81.78,3.69,10.05,13.51,36.74.45,51.33-6.12,6.85-15.77,9.36-26.6,9.36-12.69,0-27.01-3.44-39.26-7.38-26.74-8.6-57.16-23.86-81.38-40.82-41.72-29.21-69.87-67.82-88.84-105.38-2.77-4.54-6.07-12.25-11.16-24.17-4.48-10.49-9.39-21.99-13.16-37.23-.55-1.82-1.08-3.63-1.58-5.4-.19-.66-.21-1.34-.1-2-1.52-7.49-4.98-27.63-3.4-53.91.9-14.9,1.36-24.4,3.63-32.59.55-3.6,1.94-7.55,4.2-11.84,23.4-44.55,138.32-127.16,272.33-160.48,36-8.95,73.25-14.23,110.72-15.67,1.66-.07,3.21.8,4.04,2.23.83,1.44.79,3.21-.09,4.61-7.77,12.31-15.84,24.8-23.99,37.1-14.19,21.42-29.38,44.1-45.38,65.32l-2.35,3.11c-26.01,34.5-40.33,53.5-63.55,67.44-4.9,2.94-9.79,5.41-15.07,7.56-1.52,25.32-6.53,49.72-14.55,72.71,3.1-.52,6.32-1.12,9.66-1.83,22.35-4.75,78.62-20.79,118.38-67.04,13.59-15.81,21.68-31.1,32.87-52.26,6.99-13.21,11.25-23.03,15.37-32.52,5.45-12.56,10.61-24.43,21.23-42.18,12.31-20.57,18.5-30.9,31.17-42.8,14.59-13.7,30.33-22.11,54.15-34.84,12.33-6.59,21.37-10.89,27.97-14.03,5.91-2.81,11.05-5.26,12.18-6.52-.39-.94-3.98-6.82-32.43-14.45Z"/>
  <path class="cls-1" d="M712.94,1217.11c-1.98-4.33-9.08-22.68.38-38.68,2.75-4.65,6.13-7.8,8.55-9.72.02.03.06.06.09.09v-110.38h.02c0-.98.31-1.97,1-2.79,3.38-4.04,7.15-9.7,5.91-13.8-.37-1.22-1.16-2.26-2.25-3.71-1.84-2.43-4.12-5.46-5.41-10.72-.34-1.38-1.14-4.62-.77-8.73.51-5.81,2.94-8.98,4.89-11.52,1.35-1.77,2.25-2.93,2.56-4.88.34-2.1-.26-3.33-1.64-5.9-1.51-2.8-3.57-6.64-3.64-12.71-.06-4.93,1.21-8.33,2.8-12.64l.34-.93c5.68-15.4,9.1-24.67,9.1-28.16.01-6.13-2.98-9.98-6.76-14.86-4.46-5.75-10.01-12.9-10.8-25.26-.35-5.51.31-10.55,1.92-14.56,1.8-4.5,5.49-10.01,20.15-19.72,4.48-2.97,9.15-5.76,13.95-8.35l2.93-7.48-25.65-71.46v-43.96c.05-.87.08-1.75.08-2.63,0-24.65-20.32-44.63-45.38-44.63s-45.38,19.98-45.38,44.63c0,.48.02.95.04,1.42h-.04v106.09c1.19,126.27,2.74,390.32,2.74,390.71h0c1.19,11.09,7.08,25.51,18.31,36.73,4.85,4.85,17.66,17.63,37.64,18.31,14.27.49,25.72-5.42,32.98-10.64,1-.72,1.59-1.86,1.59-3.08v-32.03c0-1.27-.63-2.46-1.71-3.16-6.95-4.53-14.11-11.21-18.54-20.88Z"/>
</svg>